<svg width="25" height="25" viewBox="0 0 25 25" fill="none" xmlns="http://www.w3.org/2000/svg">
<path d="M8.2 8.40078H11.8H15.4M8.2 12.6008H11.8H15.4M8.2 16.8008H11.8H15.4M19.6 9.60078H21.4H23.2M19.6 12.6008H21.4H23.2M19.6 15.6008H21.4H23.2M21.4 4.20078V21.0008C21.4 22.3263 20.3255 23.4008 19 23.4008H4.6C3.27452 23.4008 2.2 22.3263 2.2 21.0008V4.20078C2.2 2.8753 3.27451 1.80078 4.6 1.80078H19C20.3255 1.80078 21.4 2.8753 21.4 4.20078ZM2.2 18.0008V18.0008C2.86274 18.0008 3.4 17.4635 3.4 16.8008V7.80078C3.4 7.13804 2.86274 6.60078 2.2 6.60078V6.60078C1.53726 6.60078 1 7.13804 1 7.80078V16.8008C1 17.4635 1.53726 18.0008 2.2 18.0008Z" stroke="#0D0D0D" stroke-width="2" stroke-linecap="round"/>
</svg>
