<svg width="25" height="24" viewBox="0 0 25 24" fill="none" xmlns="http://www.w3.org/2000/svg">
<path d="M1.8394 5.08373C1.8394 2.90146 3.60849 1.13237 5.79078 1.13237H6.44894C8.63123 1.13237 10.4003 2.90146 10.4003 5.08373V11.0103C10.4003 13.1925 8.63123 14.9616 6.44894 14.9616H5.79078C3.60849 14.9616 1.8394 13.1925 1.8394 11.0103V5.08373ZM15.3028 16.9374C15.3028 14.7552 17.0719 12.9861 19.2542 12.9861H19.9123C22.0946 12.9861 23.8637 14.7552 23.8637 16.9374V18.9127C23.8637 21.095 22.0946 22.8641 19.9123 22.8641H19.2542C17.0719 22.8641 15.3028 21.095 15.3028 18.9127V16.9374ZM15.3028 4.09589C15.3028 2.45919 16.6296 1.13237 18.2663 1.13237H20.9002C22.5369 1.13237 23.8637 2.45919 23.8637 4.09589V5.41272C23.8637 7.04942 22.5369 8.37623 20.9002 8.37623H18.2663C16.6296 8.37623 15.3028 7.04942 15.3028 5.41271V4.09589ZM1.8394 20.5966C1.8394 19.5054 2.72395 18.6209 3.81509 18.6209H8.7543C9.84545 18.6209 10.73 19.5054 10.73 20.5966C10.73 21.6877 9.84545 22.5722 8.7543 22.5722H3.81509C2.72395 22.5722 1.8394 21.6877 1.8394 20.5966Z" stroke="#0D0D0D" stroke-width="1.97568"/>
</svg>
